<svg width="660" height="200" viewBox="0 0 660 200" fill="none" xmlns="http://www.w3.org/2000/svg">
  <defs>
    <linearGradient id="ink" x1="200" y1="60" x2="460" y2="150" gradientUnits="userSpaceOnUse">
      <stop offset="0" stop-color="#a78bfa"/>
      <stop offset="0.5" stop-color="#4cc9f0"/>
      <stop offset="1" stop-color="#06d6a0"/>
    </linearGradient>
    <pattern id="dots" width="22" height="22" patternUnits="userSpaceOnUse">
      <circle cx="3" cy="3" r="1.3" fill="#272a33"/>
    </pattern>
    <clipPath id="card">
      <rect width="660" height="200" rx="20"/>
    </clipPath>
  </defs>
  <g clip-path="url(#card)">
    <rect width="660" height="200" fill="#14161b"/>
    <rect width="660" height="200" fill="url(#dots)"/>
    <path d="M330 100 C296 46 206 46 206 100 C206 154 296 154 330 100 C364 46 454 46 454 100 C454 154 364 154 330 100"
          stroke="url(#ink)" stroke-width="15" stroke-linecap="round"/>
    <path d="M330 100 C296 46 206 46 206 100"
          stroke="#ffffff" stroke-opacity="0.14" stroke-width="5" stroke-linecap="round"/>
    <circle cx="330" cy="100" r="7" fill="#e8eaed"/>
    <circle cx="500" cy="58" r="4" fill="#ef476f"/>
    <circle cx="522" cy="130" r="3" fill="#ffb703"/>
    <circle cx="152" cy="142" r="4" fill="#4cc9f0"/>
    <circle cx="136" cy="64" r="3" fill="#a78bfa"/>
  </g>
  <rect x="0.5" y="0.5" width="659" height="199" rx="19.5" stroke="#2c2f38"/>
</svg>
